<?xml version="1.0" encoding="UTF-8" standalone="no"?>
<!DOCTYPE svg PUBLIC "-//W3C//DTD SVG 1.1//EN"
 "http://www.w3.org/Graphics/SVG/1.1/DTD/svg11.dtd">
<!-- Generated by graphviz version 13.1.1 (20250719.2154)
 -->
<!-- Pages: 1 -->
<svg width="1765pt" height="508pt"
 viewBox="0.00 0.00 1765.00 508.00" xmlns="http://www.w3.org/2000/svg" xmlns:xlink="http://www.w3.org/1999/xlink">
<g id="graph0" class="graph" transform="scale(1 1) rotate(0) translate(4 503.91)">
<polygon fill="white" stroke="none" points="-4,4 -4,-503.91 1761.37,-503.91 1761.37,4 -4,4"/>
<!-- charset&#45;normalizer -->
<g id="node1" class="node">
<title>charset&#45;normalizer</title>
<ellipse fill="none" stroke="black" cx="938" cy="-139.47" rx="83.44" ry="28.99"/>
<text xml:space="preserve" text-anchor="middle" x="938" y="-142.67" font-family="Times,serif" font-size="14.00">charset&#45;normalizer</text>
<text xml:space="preserve" text-anchor="middle" x="938" y="-126.17" font-family="Times,serif" font-size="14.00">3.4.2</text>
</g>
<!-- markdown&#45;it&#45;py -->
<g id="node2" class="node">
<title>markdown&#45;it&#45;py</title>
<ellipse fill="none" stroke="black" cx="1531" cy="-139.47" rx="73.89" ry="28.99"/>
<text xml:space="preserve" text-anchor="middle" x="1531" y="-142.67" font-family="Times,serif" font-size="14.00">markdown&#45;it&#45;py</text>
<text xml:space="preserve" text-anchor="middle" x="1531" y="-126.17" font-family="Times,serif" font-size="14.00">3.0.0</text>
</g>
<!-- mdurl -->
<g id="node3" class="node">
<title>mdurl</title>
<ellipse fill="none" stroke="black" cx="1531" cy="-28.99" rx="34.65" ry="28.99"/>
<text xml:space="preserve" text-anchor="middle" x="1531" y="-32.19" font-family="Times,serif" font-size="14.00">mdurl</text>
<text xml:space="preserve" text-anchor="middle" x="1531" y="-15.69" font-family="Times,serif" font-size="14.00">0.1.2</text>
</g>
<!-- markdown&#45;it&#45;py&#45;&gt;mdurl -->
<g id="edge1" class="edge">
<title>markdown&#45;it&#45;py&#45;&gt;mdurl</title>
<path fill="none" stroke="black" d="M1531,-110.25C1531,-97.92 1531,-83.24 1531,-69.82"/>
<polygon fill="black" stroke="black" points="1534.5,-69.96 1531,-59.96 1527.5,-69.96 1534.5,-69.96"/>
<text xml:space="preserve" text-anchor="middle" x="1547.5" y="-79.18" font-family="Times,serif" font-size="14.00">~=0.1</text>
</g>
<!-- python&#45;dateutil -->
<g id="node4" class="node">
<title>python&#45;dateutil</title>
<ellipse fill="none" stroke="black" cx="331" cy="-139.47" rx="69.65" ry="28.99"/>
<text xml:space="preserve" text-anchor="middle" x="331" y="-142.67" font-family="Times,serif" font-size="14.00">python&#45;dateutil</text>
<text xml:space="preserve" text-anchor="middle" x="331" y="-126.17" font-family="Times,serif" font-size="14.00">2.9.0.post0</text>
</g>
<!-- six -->
<g id="node5" class="node">
<title>six</title>
<ellipse fill="none" stroke="black" cx="331" cy="-28.99" rx="35.71" ry="28.99"/>
<text xml:space="preserve" text-anchor="middle" x="331" y="-32.19" font-family="Times,serif" font-size="14.00">six</text>
<text xml:space="preserve" text-anchor="middle" x="331" y="-15.69" font-family="Times,serif" font-size="14.00">1.17.0</text>
</g>
<!-- python&#45;dateutil&#45;&gt;six -->
<g id="edge2" class="edge">
<title>python&#45;dateutil&#45;&gt;six</title>
<path fill="none" stroke="black" d="M331,-110.25C331,-97.92 331,-83.24 331,-69.82"/>
<polygon fill="black" stroke="black" points="334.5,-69.96 331,-59.96 327.5,-69.96 334.5,-69.96"/>
<text xml:space="preserve" text-anchor="middle" x="347.87" y="-79.18" font-family="Times,serif" font-size="14.00">&gt;=1.5</text>
</g>
<!-- python&#45;dotenv -->
<g id="node6" class="node">
<title>python&#45;dotenv</title>
<ellipse fill="none" stroke="black" cx="67" cy="-360.44" rx="67" ry="28.99"/>
<text xml:space="preserve" text-anchor="middle" x="67" y="-363.64" font-family="Times,serif" font-size="14.00">python&#45;dotenv</text>
<text xml:space="preserve" text-anchor="middle" x="67" y="-347.14" font-family="Times,serif" font-size="14.00">1.1.1</text>
</g>
<!-- stock&#45;downloader -->
<g id="node7" class="node">
<title>stock&#45;downloader</title>
<ellipse fill="none" stroke="black" cx="635" cy="-470.92" rx="79.73" ry="28.99"/>
<text xml:space="preserve" text-anchor="middle" x="635" y="-474.12" font-family="Times,serif" font-size="14.00">stock&#45;downloader</text>
<text xml:space="preserve" text-anchor="middle" x="635" y="-457.62" font-family="Times,serif" font-size="14.00">1.5.0</text>
</g>
<!-- stock&#45;downloader&#45;&gt;python&#45;dotenv -->
<g id="edge3" class="edge">
<title>stock&#45;downloader&#45;&gt;python&#45;dotenv</title>
<path fill="none" stroke="black" d="M555.43,-467.33C471.76,-463.14 336.82,-452.25 223.75,-423.93 188.54,-415.11 150.7,-400.2 121.02,-387.15"/>
<polygon fill="black" stroke="black" points="122.82,-384.12 112.26,-383.24 119.96,-390.51 122.82,-384.12"/>
<text xml:space="preserve" text-anchor="middle" x="245.87" y="-410.63" font-family="Times,serif" font-size="14.00">&gt;=1.1.1</text>
</g>
<!-- duckdb -->
<g id="node8" class="node">
<title>duckdb</title>
<ellipse fill="none" stroke="black" cx="191" cy="-360.44" rx="39.42" ry="28.99"/>
<text xml:space="preserve" text-anchor="middle" x="191" y="-363.64" font-family="Times,serif" font-size="14.00">duckdb</text>
<text xml:space="preserve" text-anchor="middle" x="191" y="-347.14" font-family="Times,serif" font-size="14.00">1.3.2</text>
</g>
<!-- stock&#45;downloader&#45;&gt;duckdb -->
<g id="edge4" class="edge">
<title>stock&#45;downloader&#45;&gt;duckdb</title>
<path fill="none" stroke="black" d="M556.68,-464.92C491.02,-459.26 395.33,-447.54 314.75,-423.93 284.84,-415.17 253.52,-399.28 229.88,-385.72"/>
<polygon fill="black" stroke="black" points="231.94,-382.87 221.54,-380.84 228.4,-388.91 231.94,-382.87"/>
<text xml:space="preserve" text-anchor="middle" x="336.87" y="-410.63" font-family="Times,serif" font-size="14.00">&gt;=1.3.2</text>
</g>
<!-- graphviz -->
<g id="node9" class="node">
<title>graphviz</title>
<ellipse fill="none" stroke="black" cx="293" cy="-360.44" rx="44.72" ry="28.99"/>
<text xml:space="preserve" text-anchor="middle" x="293" y="-363.64" font-family="Times,serif" font-size="14.00">graphviz</text>
<text xml:space="preserve" text-anchor="middle" x="293" y="-347.14" font-family="Times,serif" font-size="14.00">0.21</text>
</g>
<!-- stock&#45;downloader&#45;&gt;graphviz -->
<g id="edge5" class="edge">
<title>stock&#45;downloader&#45;&gt;graphviz</title>
<path fill="none" stroke="black" d="M558.37,-462.29C510.38,-455.8 447.93,-444.18 395.5,-423.93 373.09,-415.27 350.07,-401.74 331.55,-389.48"/>
<polygon fill="black" stroke="black" points="333.52,-386.59 323.27,-383.88 329.59,-392.38 333.52,-386.59"/>
<text xml:space="preserve" text-anchor="middle" x="415.75" y="-410.63" font-family="Times,serif" font-size="14.00">&gt;=0.21</text>
</g>
<!-- pandas -->
<g id="node10" class="node">
<title>pandas</title>
<ellipse fill="none" stroke="black" cx="614" cy="-249.96" rx="37.83" ry="28.99"/>
<text xml:space="preserve" text-anchor="middle" x="614" y="-253.16" font-family="Times,serif" font-size="14.00">pandas</text>
<text xml:space="preserve" text-anchor="middle" x="614" y="-236.66" font-family="Times,serif" font-size="14.00">2.3.1</text>
</g>
<!-- stock&#45;downloader&#45;&gt;pandas -->
<g id="edge6" class="edge">
<title>stock&#45;downloader&#45;&gt;pandas</title>
<path fill="none" stroke="black" d="M614.42,-442.46C604.56,-427.6 593.82,-408.43 588.75,-389.43 579.74,-355.66 588.68,-316.41 598.32,-288.33"/>
<polygon fill="black" stroke="black" points="601.51,-289.8 601.64,-279.21 594.93,-287.41 601.51,-289.8"/>
<text xml:space="preserve" text-anchor="middle" x="610.87" y="-355.39" font-family="Times,serif" font-size="14.00">&gt;=2.3.1</text>
</g>
<!-- pipdeptree -->
<g id="node11" class="node">
<title>pipdeptree</title>
<ellipse fill="none" stroke="black" cx="407" cy="-360.44" rx="51.62" ry="28.99"/>
<text xml:space="preserve" text-anchor="middle" x="407" y="-363.64" font-family="Times,serif" font-size="14.00">pipdeptree</text>
<text xml:space="preserve" text-anchor="middle" x="407" y="-347.14" font-family="Times,serif" font-size="14.00">2.28.0</text>
</g>
<!-- stock&#45;downloader&#45;&gt;pipdeptree -->
<g id="edge7" class="edge">
<title>stock&#45;downloader&#45;&gt;pipdeptree</title>
<path fill="none" stroke="black" d="M559.79,-460.82C526.94,-454.28 489.12,-443.07 459,-423.93 448.15,-417.03 438.43,-407.13 430.42,-397.23"/>
<polygon fill="black" stroke="black" points="433.32,-395.27 424.48,-389.44 427.76,-399.51 433.32,-395.27"/>
<text xml:space="preserve" text-anchor="middle" x="484.5" y="-410.63" font-family="Times,serif" font-size="14.00">&gt;=2.28.0</text>
</g>
<!-- plotly -->
<g id="node12" class="node">
<title>plotly</title>
<ellipse fill="none" stroke="black" cx="510" cy="-360.44" rx="33.59" ry="28.99"/>
<text xml:space="preserve" text-anchor="middle" x="510" y="-363.64" font-family="Times,serif" font-size="14.00">plotly</text>
<text xml:space="preserve" text-anchor="middle" x="510" y="-347.14" font-family="Times,serif" font-size="14.00">6.2.0</text>
</g>
<!-- stock&#45;downloader&#45;&gt;plotly -->
<g id="edge8" class="edge">
<title>stock&#45;downloader&#45;&gt;plotly</title>
<path fill="none" stroke="black" d="M567.67,-455.06C550.45,-448.23 533.5,-438.31 521.75,-423.93 516.42,-417.41 513.22,-409.22 511.36,-400.94"/>
<polygon fill="black" stroke="black" points="514.84,-400.56 509.81,-391.24 507.93,-401.66 514.84,-400.56"/>
<text xml:space="preserve" text-anchor="middle" x="543.87" y="-410.63" font-family="Times,serif" font-size="14.00">&gt;=6.2.0</text>
</g>
<!-- pyyaml -->
<g id="node13" class="node">
<title>pyyaml</title>
<ellipse fill="none" stroke="black" cx="691" cy="-360.44" rx="48.97" ry="28.99"/>
<text xml:space="preserve" text-anchor="middle" x="691" y="-363.64" font-family="Times,serif" font-size="14.00">PyYAML</text>
<text xml:space="preserve" text-anchor="middle" x="691" y="-347.14" font-family="Times,serif" font-size="14.00">6.0.2</text>
</g>
<!-- stock&#45;downloader&#45;&gt;pyyaml -->
<g id="edge9" class="edge">
<title>stock&#45;downloader&#45;&gt;pyyaml</title>
<path fill="none" stroke="black" d="M649.42,-441.99C656.25,-428.75 664.51,-412.76 671.86,-398.52"/>
<polygon fill="black" stroke="black" points="674.84,-400.37 676.32,-389.88 668.62,-397.16 674.84,-400.37"/>
<text xml:space="preserve" text-anchor="middle" x="688.48" y="-410.63" font-family="Times,serif" font-size="14.00">&gt;=6.0.2</text>
</g>
<!-- ratelimit -->
<g id="node14" class="node">
<title>ratelimit</title>
<ellipse fill="none" stroke="black" cx="802" cy="-360.44" rx="44.19" ry="28.99"/>
<text xml:space="preserve" text-anchor="middle" x="802" y="-363.64" font-family="Times,serif" font-size="14.00">ratelimit</text>
<text xml:space="preserve" text-anchor="middle" x="802" y="-347.14" font-family="Times,serif" font-size="14.00">2.2.1</text>
</g>
<!-- stock&#45;downloader&#45;&gt;ratelimit -->
<g id="edge10" class="edge">
<title>stock&#45;downloader&#45;&gt;ratelimit</title>
<path fill="none" stroke="black" d="M678.24,-446.12C690.29,-439.21 703.28,-431.48 715,-423.93 731.57,-413.25 749.33,-400.71 764.46,-389.67"/>
<polygon fill="black" stroke="black" points="766.3,-392.66 772.29,-383.91 762.16,-387.02 766.3,-392.66"/>
<text xml:space="preserve" text-anchor="middle" x="761.54" y="-410.63" font-family="Times,serif" font-size="14.00">&gt;=2.2.1</text>
</g>
<!-- tabulate -->
<g id="node15" class="node">
<title>tabulate</title>
<ellipse fill="none" stroke="black" cx="906" cy="-360.44" rx="41.54" ry="28.99"/>
<text xml:space="preserve" text-anchor="middle" x="906" y="-363.64" font-family="Times,serif" font-size="14.00">tabulate</text>
<text xml:space="preserve" text-anchor="middle" x="906" y="-347.14" font-family="Times,serif" font-size="14.00">0.9.0</text>
</g>
<!-- stock&#45;downloader&#45;&gt;tabulate -->
<g id="edge11" class="edge">
<title>stock&#45;downloader&#45;&gt;tabulate</title>
<path fill="none" stroke="black" d="M699.17,-453.47C726.89,-445.64 759.45,-435.46 788,-423.93 819.06,-411.39 825.43,-405.16 855,-389.43 857.98,-387.85 861.05,-386.2 864.14,-384.53"/>
<polygon fill="black" stroke="black" points="865.52,-387.76 872.64,-379.91 862.18,-381.61 865.52,-387.76"/>
<text xml:space="preserve" text-anchor="middle" x="844.18" y="-410.63" font-family="Times,serif" font-size="14.00">&gt;=0.9.0</text>
</g>
<!-- tqdm -->
<g id="node16" class="node">
<title>tqdm</title>
<ellipse fill="none" stroke="black" cx="1330" cy="-249.96" rx="35.71" ry="28.99"/>
<text xml:space="preserve" text-anchor="middle" x="1330" y="-253.16" font-family="Times,serif" font-size="14.00">tqdm</text>
<text xml:space="preserve" text-anchor="middle" x="1330" y="-236.66" font-family="Times,serif" font-size="14.00">4.67.1</text>
</g>
<!-- stock&#45;downloader&#45;&gt;tqdm -->
<g id="edge12" class="edge">
<title>stock&#45;downloader&#45;&gt;tqdm</title>
<path fill="none" stroke="black" d="M713.88,-465.91C839.36,-456.27 1088.2,-423.64 1264,-313.45 1277.64,-304.9 1290.88,-293.24 1301.89,-282.31"/>
<polygon fill="black" stroke="black" points="1304.3,-284.85 1308.78,-275.24 1299.29,-279.96 1304.3,-284.85"/>
<text xml:space="preserve" text-anchor="middle" x="1256.16" y="-355.39" font-family="Times,serif" font-size="14.00">&gt;=4.67.1</text>
</g>
<!-- tushare -->
<g id="node17" class="node">
<title>tushare</title>
<ellipse fill="none" stroke="black" cx="1004" cy="-360.44" rx="38.89" ry="28.99"/>
<text xml:space="preserve" text-anchor="middle" x="1004" y="-363.64" font-family="Times,serif" font-size="14.00">tushare</text>
<text xml:space="preserve" text-anchor="middle" x="1004" y="-347.14" font-family="Times,serif" font-size="14.00">1.4.21</text>
</g>
<!-- stock&#45;downloader&#45;&gt;tushare -->
<g id="edge13" class="edge">
<title>stock&#45;downloader&#45;&gt;tushare</title>
<path fill="none" stroke="black" d="M708.35,-459.14C755.12,-451.39 816.74,-439.56 870,-423.93 909.91,-412.22 919.68,-407.8 957,-389.43 959.53,-388.18 962.11,-386.85 964.7,-385.46"/>
<polygon fill="black" stroke="black" points="966.22,-388.62 973.24,-380.68 962.8,-382.51 966.22,-388.62"/>
<text xml:space="preserve" text-anchor="middle" x="942.87" y="-410.63" font-family="Times,serif" font-size="14.00">&gt;=1.4.21</text>
</g>
<!-- typer -->
<g id="node18" class="node">
<title>typer</title>
<ellipse fill="none" stroke="black" cx="1500" cy="-360.44" rx="35.71" ry="28.99"/>
<text xml:space="preserve" text-anchor="middle" x="1500" y="-363.64" font-family="Times,serif" font-size="14.00">typer</text>
<text xml:space="preserve" text-anchor="middle" x="1500" y="-347.14" font-family="Times,serif" font-size="14.00">0.16.0</text>
</g>
<!-- stock&#45;downloader&#45;&gt;typer -->
<g id="edge14" class="edge">
<title>stock&#45;downloader&#45;&gt;typer</title>
<path fill="none" stroke="black" d="M714.67,-467.74C872.83,-462.91 1221.24,-449.64 1338,-423.93 1380.85,-414.5 1427.34,-395.59 1459.48,-381.03"/>
<polygon fill="black" stroke="black" points="1460.81,-384.27 1468.43,-376.91 1457.88,-377.91 1460.81,-384.27"/>
<text xml:space="preserve" text-anchor="middle" x="1418.36" y="-410.63" font-family="Times,serif" font-size="14.00">&gt;=0.12.3</text>
</g>
<!-- pandas&#45;&gt;python&#45;dateutil -->
<g id="edge18" class="edge">
<title>pandas&#45;&gt;python&#45;dateutil</title>
<path fill="none" stroke="black" d="M586.05,-229.89C579.99,-226.45 573.45,-223.24 567,-220.97 513.55,-202.1 494.38,-221.31 440.75,-202.97 418.14,-195.23 394.88,-182.75 375.63,-170.97"/>
<polygon fill="black" stroke="black" points="377.57,-168.06 367.24,-165.71 373.85,-173.99 377.57,-168.06"/>
<text xml:space="preserve" text-anchor="middle" x="462.87" y="-189.67" font-family="Times,serif" font-size="14.00">&gt;=2.8.2</text>
</g>
<!-- numpy -->
<g id="node29" class="node">
<title>numpy</title>
<ellipse fill="none" stroke="black" cx="457" cy="-139.47" rx="38.36" ry="28.99"/>
<text xml:space="preserve" text-anchor="middle" x="457" y="-142.67" font-family="Times,serif" font-size="14.00">numpy</text>
<text xml:space="preserve" text-anchor="middle" x="457" y="-126.17" font-family="Times,serif" font-size="14.00">2.3.2</text>
</g>
<!-- pandas&#45;&gt;numpy -->
<g id="edge19" class="edge">
<title>pandas&#45;&gt;numpy</title>
<path fill="none" stroke="black" d="M585.51,-230.48C579.53,-227.04 573.17,-223.68 567,-220.97 541.51,-209.76 530.07,-218.54 507,-202.97 496.33,-195.76 486.83,-185.59 479.06,-175.54"/>
<polygon fill="black" stroke="black" points="482.03,-173.68 473.31,-167.66 476.38,-177.8 482.03,-173.68"/>
<text xml:space="preserve" text-anchor="middle" x="532.5" y="-189.67" font-family="Times,serif" font-size="14.00">&gt;=1.26.0</text>
</g>
<!-- pytz -->
<g id="node31" class="node">
<title>pytz</title>
<ellipse fill="none" stroke="black" cx="551" cy="-139.47" rx="37.83" ry="28.99"/>
<text xml:space="preserve" text-anchor="middle" x="551" y="-142.67" font-family="Times,serif" font-size="14.00">pytz</text>
<text xml:space="preserve" text-anchor="middle" x="551" y="-126.17" font-family="Times,serif" font-size="14.00">2025.2</text>
</g>
<!-- pandas&#45;&gt;pytz -->
<g id="edge20" class="edge">
<title>pandas&#45;&gt;pytz</title>
<path fill="none" stroke="black" d="M589.74,-227.79C582.57,-220.51 575.24,-211.93 570,-202.97 565.75,-195.7 562.36,-187.39 559.7,-179.25"/>
<polygon fill="black" stroke="black" points="563.11,-178.44 556.93,-169.84 556.4,-180.42 563.11,-178.44"/>
<text xml:space="preserve" text-anchor="middle" x="597" y="-189.67" font-family="Times,serif" font-size="14.00">&gt;=2020.1</text>
</g>
<!-- tzdata -->
<g id="node32" class="node">
<title>tzdata</title>
<ellipse fill="none" stroke="black" cx="645" cy="-139.47" rx="37.83" ry="28.99"/>
<text xml:space="preserve" text-anchor="middle" x="645" y="-142.67" font-family="Times,serif" font-size="14.00">tzdata</text>
<text xml:space="preserve" text-anchor="middle" x="645" y="-126.17" font-family="Times,serif" font-size="14.00">2025.2</text>
</g>
<!-- pandas&#45;&gt;tzdata -->
<g id="edge21" class="edge">
<title>pandas&#45;&gt;tzdata</title>
<path fill="none" stroke="black" d="M621.9,-221.3C625.58,-208.42 630.02,-192.89 634.02,-178.89"/>
<polygon fill="black" stroke="black" points="637.31,-180.11 636.69,-169.53 630.58,-178.19 637.31,-180.11"/>
<text xml:space="preserve" text-anchor="middle" x="658.35" y="-189.67" font-family="Times,serif" font-size="14.00">&gt;=2022.7</text>
</g>
<!-- packaging -->
<g id="node30" class="node">
<title>packaging</title>
<ellipse fill="none" stroke="black" cx="398" cy="-249.96" rx="50.56" ry="28.99"/>
<text xml:space="preserve" text-anchor="middle" x="398" y="-253.16" font-family="Times,serif" font-size="14.00">packaging</text>
<text xml:space="preserve" text-anchor="middle" x="398" y="-236.66" font-family="Times,serif" font-size="14.00">25.0</text>
</g>
<!-- pipdeptree&#45;&gt;packaging -->
<g id="edge22" class="edge">
<title>pipdeptree&#45;&gt;packaging</title>
<path fill="none" stroke="black" d="M404.66,-331.22C403.63,-318.89 402.42,-304.2 401.3,-290.78"/>
<polygon fill="black" stroke="black" points="404.8,-290.6 400.48,-280.92 397.82,-291.18 404.8,-290.6"/>
<text xml:space="preserve" text-anchor="middle" x="423.29" y="-300.15" font-family="Times,serif" font-size="14.00">&gt;=24.1</text>
</g>
<!-- pip -->
<g id="node33" class="node">
<title>pip</title>
<ellipse fill="none" stroke="black" cx="301" cy="-249.96" rx="28.28" ry="28.99"/>
<text xml:space="preserve" text-anchor="middle" x="301" y="-253.16" font-family="Times,serif" font-size="14.00">pip</text>
<text xml:space="preserve" text-anchor="middle" x="301" y="-236.66" font-family="Times,serif" font-size="14.00">25.2</text>
</g>
<!-- pipdeptree&#45;&gt;pip -->
<g id="edge23" class="edge">
<title>pipdeptree&#45;&gt;pip</title>
<path fill="none" stroke="black" d="M380.13,-335.27C372.68,-328.35 364.67,-320.71 357.5,-313.45 347.23,-303.04 336.36,-291.22 326.93,-280.69"/>
<polygon fill="black" stroke="black" points="329.65,-278.49 320.39,-273.34 324.42,-283.14 329.65,-278.49"/>
<text xml:space="preserve" text-anchor="middle" x="377.75" y="-300.15" font-family="Times,serif" font-size="14.00">&gt;=24.2</text>
</g>
<!-- narwhals -->
<g id="node28" class="node">
<title>narwhals</title>
<ellipse fill="none" stroke="black" cx="512" cy="-249.96" rx="45.79" ry="28.99"/>
<text xml:space="preserve" text-anchor="middle" x="512" y="-253.16" font-family="Times,serif" font-size="14.00">narwhals</text>
<text xml:space="preserve" text-anchor="middle" x="512" y="-236.66" font-family="Times,serif" font-size="14.00">2.0.1</text>
</g>
<!-- plotly&#45;&gt;narwhals -->
<g id="edge24" class="edge">
<title>plotly&#45;&gt;narwhals</title>
<path fill="none" stroke="black" d="M510.52,-331.22C510.75,-318.89 511.02,-304.2 511.26,-290.78"/>
<polygon fill="black" stroke="black" points="514.76,-290.99 511.45,-280.93 507.76,-290.86 514.76,-290.99"/>
<text xml:space="preserve" text-anchor="middle" x="536.62" y="-300.15" font-family="Times,serif" font-size="14.00">&gt;=1.15.1</text>
</g>
<!-- plotly&#45;&gt;packaging -->
<g id="edge25" class="edge">
<title>plotly&#45;&gt;packaging</title>
<path fill="none" stroke="black" d="M487.87,-338.01C471.73,-322.37 449.57,-300.91 431.3,-283.21"/>
<polygon fill="black" stroke="black" points="433.91,-280.87 424.29,-276.43 429.04,-285.9 433.91,-280.87"/>
<text xml:space="preserve" text-anchor="middle" x="470.45" y="-300.15" font-family="Times,serif" font-size="14.00">any</text>
</g>
<!-- tushare&#45;&gt;pandas -->
<g id="edge35" class="edge">
<title>tushare&#45;&gt;pandas</title>
<path fill="none" stroke="black" d="M975.56,-340.04C969.64,-336.72 963.28,-333.63 957,-331.45 900.04,-311.61 881.46,-326.15 822.5,-313.45 765.19,-301.11 700.77,-280.77 658.9,-266.67"/>
<polygon fill="black" stroke="black" points="660.27,-263.43 649.67,-263.53 658.02,-270.06 660.27,-263.43"/>
<text xml:space="preserve" text-anchor="middle" x="832.25" y="-300.15" font-family="Times,serif" font-size="14.00">any</text>
</g>
<!-- tushare&#45;&gt;tqdm -->
<g id="edge38" class="edge">
<title>tushare&#45;&gt;tqdm</title>
<path fill="none" stroke="black" d="M1041.57,-352.28C1096.62,-340.99 1201.7,-316.43 1285,-278.95 1287.74,-277.72 1290.51,-276.34 1293.26,-274.89"/>
<polygon fill="black" stroke="black" points="1294.75,-278.06 1301.72,-270.09 1291.3,-271.98 1294.75,-278.06"/>
<text xml:space="preserve" text-anchor="middle" x="1250.55" y="-300.15" font-family="Times,serif" font-size="14.00">any</text>
</g>
<!-- websocket&#45;client -->
<g id="node20" class="node">
<title>websocket&#45;client</title>
<ellipse fill="none" stroke="black" cx="1200" cy="-249.96" rx="76.01" ry="28.99"/>
<text xml:space="preserve" text-anchor="middle" x="1200" y="-253.16" font-family="Times,serif" font-size="14.00">websocket&#45;client</text>
<text xml:space="preserve" text-anchor="middle" x="1200" y="-236.66" font-family="Times,serif" font-size="14.00">1.8.0</text>
</g>
<!-- tushare&#45;&gt;websocket&#45;client -->
<g id="edge32" class="edge">
<title>tushare&#45;&gt;websocket&#45;client</title>
<path fill="none" stroke="black" d="M1034.62,-342.49C1064.84,-325.77 1111.61,-299.88 1147.71,-279.9"/>
<polygon fill="black" stroke="black" points="1149.21,-283.07 1156.27,-275.16 1145.82,-276.94 1149.21,-283.07"/>
<text xml:space="preserve" text-anchor="middle" x="1139.23" y="-300.15" font-family="Times,serif" font-size="14.00">&gt;=0.57.0</text>
</g>
<!-- bs4 -->
<g id="node23" class="node">
<title>bs4</title>
<ellipse fill="none" stroke="black" cx="767" cy="-249.96" rx="30.94" ry="28.99"/>
<text xml:space="preserve" text-anchor="middle" x="767" y="-253.16" font-family="Times,serif" font-size="14.00">bs4</text>
<text xml:space="preserve" text-anchor="middle" x="767" y="-236.66" font-family="Times,serif" font-size="14.00">0.0.2</text>
</g>
<!-- tushare&#45;&gt;bs4 -->
<g id="edge33" class="edge">
<title>tushare&#45;&gt;bs4</title>
<path fill="none" stroke="black" d="M975.04,-340.58C969.21,-337.25 963.02,-334.03 957,-331.45 929.64,-319.73 920.68,-323.03 892.5,-313.45 853.7,-300.25 843.02,-298.49 807,-278.95 804.67,-277.69 802.32,-276.32 799.98,-274.88"/>
<polygon fill="black" stroke="black" points="802.1,-272.09 791.81,-269.57 798.29,-277.96 802.1,-272.09"/>
<text xml:space="preserve" text-anchor="middle" x="902.25" y="-300.15" font-family="Times,serif" font-size="14.00">any</text>
</g>
<!-- lxml -->
<g id="node27" class="node">
<title>lxml</title>
<ellipse fill="none" stroke="black" cx="847" cy="-249.96" rx="30.94" ry="28.99"/>
<text xml:space="preserve" text-anchor="middle" x="847" y="-253.16" font-family="Times,serif" font-size="14.00">lxml</text>
<text xml:space="preserve" text-anchor="middle" x="847" y="-236.66" font-family="Times,serif" font-size="14.00">6.0.0</text>
</g>
<!-- tushare&#45;&gt;lxml -->
<g id="edge34" class="edge">
<title>tushare&#45;&gt;lxml</title>
<path fill="none" stroke="black" d="M976.06,-340.31C952.33,-324.04 917.38,-300.03 887,-278.95 884.96,-277.53 882.87,-276.08 880.76,-274.61"/>
<polygon fill="black" stroke="black" points="882.96,-271.88 872.76,-269.03 878.95,-277.62 882.96,-271.88"/>
<text xml:space="preserve" text-anchor="middle" x="944.89" y="-300.15" font-family="Times,serif" font-size="14.00">any</text>
</g>
<!-- requests -->
<g id="node35" class="node">
<title>requests</title>
<ellipse fill="none" stroke="black" cx="939" cy="-249.96" rx="42.6" ry="28.99"/>
<text xml:space="preserve" text-anchor="middle" x="939" y="-253.16" font-family="Times,serif" font-size="14.00">requests</text>
<text xml:space="preserve" text-anchor="middle" x="939" y="-236.66" font-family="Times,serif" font-size="14.00">2.32.4</text>
</g>
<!-- tushare&#45;&gt;requests -->
<g id="edge36" class="edge">
<title>tushare&#45;&gt;requests</title>
<path fill="none" stroke="black" d="M988.43,-333.46C980.05,-319.47 969.59,-302.01 960.45,-286.75"/>
<polygon fill="black" stroke="black" points="963.59,-285.18 955.44,-278.4 957.58,-288.78 963.59,-285.18"/>
<text xml:space="preserve" text-anchor="middle" x="985.14" y="-300.15" font-family="Times,serif" font-size="14.00">any</text>
</g>
<!-- simplejson -->
<g id="node39" class="node">
<title>simplejson</title>
<ellipse fill="none" stroke="black" cx="1053" cy="-249.96" rx="53.21" ry="28.99"/>
<text xml:space="preserve" text-anchor="middle" x="1053" y="-253.16" font-family="Times,serif" font-size="14.00">simplejson</text>
<text xml:space="preserve" text-anchor="middle" x="1053" y="-236.66" font-family="Times,serif" font-size="14.00">3.20.1</text>
</g>
<!-- tushare&#45;&gt;simplejson -->
<g id="edge37" class="edge">
<title>tushare&#45;&gt;simplejson</title>
<path fill="none" stroke="black" d="M1016.11,-332.62C1022.09,-319.4 1029.39,-303.21 1035.93,-288.75"/>
<polygon fill="black" stroke="black" points="1038.96,-290.53 1039.89,-279.98 1032.58,-287.65 1038.96,-290.53"/>
<text xml:space="preserve" text-anchor="middle" x="1041.18" y="-300.15" font-family="Times,serif" font-size="14.00">any</text>
</g>
<!-- typing&#45;extensions -->
<g id="node19" class="node">
<title>typing&#45;extensions</title>
<ellipse fill="none" stroke="black" cx="1676" cy="-28.99" rx="80.79" ry="28.99"/>
<text xml:space="preserve" text-anchor="middle" x="1676" y="-32.19" font-family="Times,serif" font-size="14.00">typing_extensions</text>
<text xml:space="preserve" text-anchor="middle" x="1676" y="-15.69" font-family="Times,serif" font-size="14.00">4.14.1</text>
</g>
<!-- typer&#45;&gt;typing&#45;extensions -->
<g id="edge39" class="edge">
<title>typer&#45;&gt;typing&#45;extensions</title>
<path fill="none" stroke="black" d="M1535.45,-355.88C1579.21,-349.31 1651.33,-330.77 1680,-278.95 1716.67,-212.66 1701.26,-120.46 1687.89,-68.89"/>
<polygon fill="black" stroke="black" points="1691.3,-68.11 1685.31,-59.38 1684.55,-69.95 1691.3,-68.11"/>
<text xml:space="preserve" text-anchor="middle" x="1729.99" y="-189.67" font-family="Times,serif" font-size="14.00">&gt;=3.7.4.3</text>
</g>
<!-- click -->
<g id="node25" class="node">
<title>click</title>
<ellipse fill="none" stroke="black" cx="1415" cy="-249.96" rx="30.94" ry="28.99"/>
<text xml:space="preserve" text-anchor="middle" x="1415" y="-253.16" font-family="Times,serif" font-size="14.00">click</text>
<text xml:space="preserve" text-anchor="middle" x="1415" y="-236.66" font-family="Times,serif" font-size="14.00">8.2.1</text>
</g>
<!-- typer&#45;&gt;click -->
<g id="edge40" class="edge">
<title>typer&#45;&gt;click</title>
<path fill="none" stroke="black" d="M1475.6,-338.66C1467.52,-331.16 1458.8,-322.33 1451.75,-313.45 1445.21,-305.21 1439.03,-295.69 1433.66,-286.61"/>
<polygon fill="black" stroke="black" points="1436.72,-284.9 1428.73,-277.94 1430.64,-288.36 1436.72,-284.9"/>
<text xml:space="preserve" text-anchor="middle" x="1473.87" y="-300.15" font-family="Times,serif" font-size="14.00">&gt;=8.0.0</text>
</g>
<!-- rich -->
<g id="node37" class="node">
<title>rich</title>
<ellipse fill="none" stroke="black" cx="1500" cy="-249.96" rx="35.71" ry="28.99"/>
<text xml:space="preserve" text-anchor="middle" x="1500" y="-253.16" font-family="Times,serif" font-size="14.00">rich</text>
<text xml:space="preserve" text-anchor="middle" x="1500" y="-236.66" font-family="Times,serif" font-size="14.00">14.1.0</text>
</g>
<!-- typer&#45;&gt;rich -->
<g id="edge41" class="edge">
<title>typer&#45;&gt;rich</title>
<path fill="none" stroke="black" d="M1500,-331.22C1500,-318.89 1500,-304.2 1500,-290.78"/>
<polygon fill="black" stroke="black" points="1503.5,-290.93 1500,-280.93 1496.5,-290.93 1503.5,-290.93"/>
<text xml:space="preserve" text-anchor="middle" x="1528.87" y="-300.15" font-family="Times,serif" font-size="14.00">&gt;=10.11.0</text>
</g>
<!-- shellingham -->
<g id="node38" class="node">
<title>shellingham</title>
<ellipse fill="none" stroke="black" cx="1612" cy="-249.96" rx="58.51" ry="28.99"/>
<text xml:space="preserve" text-anchor="middle" x="1612" y="-253.16" font-family="Times,serif" font-size="14.00">shellingham</text>
<text xml:space="preserve" text-anchor="middle" x="1612" y="-236.66" font-family="Times,serif" font-size="14.00">1.5.4</text>
</g>
<!-- typer&#45;&gt;shellingham -->
<g id="edge42" class="edge">
<title>typer&#45;&gt;shellingham</title>
<path fill="none" stroke="black" d="M1527.45,-341.39C1538.68,-333.43 1551.48,-323.59 1562,-313.45 1570.4,-305.35 1578.67,-295.83 1585.99,-286.71"/>
<polygon fill="black" stroke="black" points="1588.64,-289.01 1592.04,-278.97 1583.12,-284.7 1588.64,-289.01"/>
<text xml:space="preserve" text-anchor="middle" x="1599.16" y="-300.15" font-family="Times,serif" font-size="14.00">&gt;=1.3.0</text>
</g>
<!-- beautifulsoup4 -->
<g id="node21" class="node">
<title>beautifulsoup4</title>
<ellipse fill="none" stroke="black" cx="769" cy="-139.47" rx="68.06" ry="28.99"/>
<text xml:space="preserve" text-anchor="middle" x="769" y="-142.67" font-family="Times,serif" font-size="14.00">beautifulsoup4</text>
<text xml:space="preserve" text-anchor="middle" x="769" y="-126.17" font-family="Times,serif" font-size="14.00">4.13.4</text>
</g>
<!-- beautifulsoup4&#45;&gt;typing&#45;extensions -->
<g id="edge15" class="edge">
<title>beautifulsoup4&#45;&gt;typing&#45;extensions</title>
<path fill="none" stroke="black" d="M817.28,-118.62C826.67,-115.42 836.54,-112.5 846,-110.48 1163.68,-42.68 1254.9,-113.3 1575,-57.98 1584.7,-56.31 1594.82,-54.09 1604.74,-51.63"/>
<polygon fill="black" stroke="black" points="1605.55,-55.03 1614.36,-49.15 1603.8,-48.26 1605.55,-55.03"/>
<text xml:space="preserve" text-anchor="middle" x="1443.86" y="-79.18" font-family="Times,serif" font-size="14.00">&gt;=4.0.0</text>
</g>
<!-- soupsieve -->
<g id="node22" class="node">
<title>soupsieve</title>
<ellipse fill="none" stroke="black" cx="769" cy="-28.99" rx="48.97" ry="28.99"/>
<text xml:space="preserve" text-anchor="middle" x="769" y="-32.19" font-family="Times,serif" font-size="14.00">soupsieve</text>
<text xml:space="preserve" text-anchor="middle" x="769" y="-15.69" font-family="Times,serif" font-size="14.00">2.7</text>
</g>
<!-- beautifulsoup4&#45;&gt;soupsieve -->
<g id="edge16" class="edge">
<title>beautifulsoup4&#45;&gt;soupsieve</title>
<path fill="none" stroke="black" d="M769,-110.25C769,-97.92 769,-83.24 769,-69.82"/>
<polygon fill="black" stroke="black" points="772.5,-69.96 769,-59.96 765.5,-69.96 772.5,-69.96"/>
<text xml:space="preserve" text-anchor="middle" x="781.75" y="-79.18" font-family="Times,serif" font-size="14.00">&gt;1.2</text>
</g>
<!-- bs4&#45;&gt;beautifulsoup4 -->
<g id="edge17" class="edge">
<title>bs4&#45;&gt;beautifulsoup4</title>
<path fill="none" stroke="black" d="M767.52,-220.74C767.75,-208.4 768.02,-193.72 768.26,-180.3"/>
<polygon fill="black" stroke="black" points="771.76,-180.51 768.45,-170.44 764.76,-180.38 771.76,-180.51"/>
<text xml:space="preserve" text-anchor="middle" x="777.87" y="-189.67" font-family="Times,serif" font-size="14.00">any</text>
</g>
<!-- certifi -->
<g id="node24" class="node">
<title>certifi</title>
<ellipse fill="none" stroke="black" cx="1089" cy="-139.47" rx="50.03" ry="28.99"/>
<text xml:space="preserve" text-anchor="middle" x="1089" y="-142.67" font-family="Times,serif" font-size="14.00">certifi</text>
<text xml:space="preserve" text-anchor="middle" x="1089" y="-126.17" font-family="Times,serif" font-size="14.00">2025.7.14</text>
</g>
<!-- idna -->
<g id="node26" class="node">
<title>idna</title>
<ellipse fill="none" stroke="black" cx="1185" cy="-139.47" rx="28.28" ry="28.99"/>
<text xml:space="preserve" text-anchor="middle" x="1185" y="-142.67" font-family="Times,serif" font-size="14.00">idna</text>
<text xml:space="preserve" text-anchor="middle" x="1185" y="-126.17" font-family="Times,serif" font-size="14.00">3.10</text>
</g>
<!-- pygments -->
<g id="node34" class="node">
<title>pygments</title>
<ellipse fill="none" stroke="black" cx="1390" cy="-139.47" rx="49.5" ry="28.99"/>
<text xml:space="preserve" text-anchor="middle" x="1390" y="-142.67" font-family="Times,serif" font-size="14.00">Pygments</text>
<text xml:space="preserve" text-anchor="middle" x="1390" y="-126.17" font-family="Times,serif" font-size="14.00">2.19.2</text>
</g>
<!-- requests&#45;&gt;charset&#45;normalizer -->
<g id="edge26" class="edge">
<title>requests&#45;&gt;charset&#45;normalizer</title>
<path fill="none" stroke="black" d="M938.74,-220.74C938.62,-208.4 938.49,-193.72 938.37,-180.3"/>
<polygon fill="black" stroke="black" points="941.87,-180.41 938.27,-170.44 934.87,-180.47 941.87,-180.41"/>
<text xml:space="preserve" text-anchor="middle" x="959.56" y="-189.67" font-family="Times,serif" font-size="14.00">&gt;=2,&lt;4</text>
</g>
<!-- requests&#45;&gt;certifi -->
<g id="edge27" class="edge">
<title>requests&#45;&gt;certifi</title>
<path fill="none" stroke="black" d="M967.57,-228.3C990.66,-211.6 1023.43,-187.9 1049.11,-169.33"/>
<polygon fill="black" stroke="black" points="1050.94,-172.32 1056.99,-163.62 1046.83,-166.65 1050.94,-172.32"/>
<text xml:space="preserve" text-anchor="middle" x="1058.6" y="-189.67" font-family="Times,serif" font-size="14.00">&gt;=2017.4.17</text>
</g>
<!-- requests&#45;&gt;idna -->
<g id="edge28" class="edge">
<title>requests&#45;&gt;idna</title>
<path fill="none" stroke="black" d="M970.43,-229.93C977.05,-226.53 984.11,-223.33 991,-220.97 1036.62,-205.33 1053.31,-221.09 1098,-202.97 1118.89,-194.49 1139.5,-180.03 1155.41,-167.16"/>
<polygon fill="black" stroke="black" points="1157.61,-169.88 1163.05,-160.79 1153.13,-164.51 1157.61,-169.88"/>
<text xml:space="preserve" text-anchor="middle" x="1152.74" y="-189.67" font-family="Times,serif" font-size="14.00">&gt;=2.5,&lt;4</text>
</g>
<!-- urllib3 -->
<g id="node36" class="node">
<title>urllib3</title>
<ellipse fill="none" stroke="black" cx="1268" cy="-139.47" rx="36.77" ry="28.99"/>
<text xml:space="preserve" text-anchor="middle" x="1268" y="-142.67" font-family="Times,serif" font-size="14.00">urllib3</text>
<text xml:space="preserve" text-anchor="middle" x="1268" y="-126.17" font-family="Times,serif" font-size="14.00">2.5.0</text>
</g>
<!-- requests&#45;&gt;urllib3 -->
<g id="edge29" class="edge">
<title>requests&#45;&gt;urllib3</title>
<path fill="none" stroke="black" d="M970.02,-229.67C976.73,-226.25 983.93,-223.1 991,-220.97 1073.04,-196.16 1102.9,-233.46 1183,-202.97 1202.6,-195.5 1221.68,-182.21 1236.77,-169.8"/>
<polygon fill="black" stroke="black" points="1238.68,-172.77 1244.02,-163.62 1234.14,-167.44 1238.68,-172.77"/>
<text xml:space="preserve" text-anchor="middle" x="1248.44" y="-189.67" font-family="Times,serif" font-size="14.00">&gt;=1.21.1,&lt;3</text>
</g>
<!-- rich&#45;&gt;markdown&#45;it&#45;py -->
<g id="edge30" class="edge">
<title>rich&#45;&gt;markdown&#45;it&#45;py</title>
<path fill="none" stroke="black" d="M1507.9,-221.3C1511.55,-208.52 1515.95,-193.13 1519.93,-179.22"/>
<polygon fill="black" stroke="black" points="1523.2,-180.49 1522.59,-169.91 1516.47,-178.57 1523.2,-180.49"/>
<text xml:space="preserve" text-anchor="middle" x="1539.48" y="-189.67" font-family="Times,serif" font-size="14.00">&gt;=2.2.0</text>
</g>
<!-- rich&#45;&gt;pygments -->
<g id="edge31" class="edge">
<title>rich&#45;&gt;pygments</title>
<path fill="none" stroke="black" d="M1472.63,-231.39C1466.86,-227.84 1460.78,-224.21 1455,-220.97 1439.49,-212.26 1431.65,-215.72 1419.25,-202.97 1412.6,-196.13 1407.26,-187.49 1403.05,-178.85"/>
<polygon fill="black" stroke="black" points="1406.31,-177.55 1399.08,-169.8 1399.9,-180.36 1406.31,-177.55"/>
<text xml:space="preserve" text-anchor="middle" x="1464.62" y="-189.67" font-family="Times,serif" font-size="14.00">&gt;=2.13.0,&lt;3.0.0</text>
</g>
</g>
</svg>
